# xmcd CD database file
#
# Track frame offsets:
#	150
#	13603
#	25680
#	38028
#	53368
#
# Disc length: 938 seconds
#
# Revision: 0
# Processed by: cddbd v1.5.2PL0 Copyright (c) Steve Scherf et al.
# Submitted via: CDex 1.51
#
DISCID=2a03a805
DTITLE=Return to Arms - Return to Arms
DYEAR=2007
DGENRE=Salsa
TTITLE0=Inside My Head
TTITLE1=Overdose
TTITLE2=Take Your Time
TTITLE3=This is for You
TTITLE4=A Crime in Progress
EXTD=YEAR: 2007
EXTT0=
EXTT1=
EXTT2=
EXTT3=
EXTT4=
PLAYORDER=
